<svg xmlns="http://www.w3.org/2000/svg" version="1.1" xmlns:xlink="http://www.w3.org/1999/xlink" xmlns:svgjs="http://svgjs.dev/svgjs" width="100%" height="100%" viewBox="0 0 1000 600"><rect width="1000" height="600" x="0" y="0" fill="#ffffff"/><g><rect width="333.3333333333333" height="333.3333333333333" rx="13.333333333333334" ry="13.333333333333334" y="218.98885658150402" fill="#000000" transform="matrix(0.6352703999215933,0,0,0.6352703999215932,0,55.00447704306987)" x="196.7667083740234"/><path d="M416.92579414209234 460.6555296276664L391.30801829151295 460.6555296276664L329.5503462876657 392.2019628857447L329.5503462876657 460.6555296276664L309.94094026901917 460.6555296276664L309.94094026901917 310.6555305399096L329.5503462876657 310.6555305399096L329.5503462876657 380.1553308346554L391.51726500207775 310.6555305399096L416.2681616231743 310.6555305399096L348.26298068960585 385.7452072454587L416.92579414209234 460.6555296276664Z " fill="#ffffff" transform="matrix(0.6352703999215933,0,0,0.6352703999215932,0,55.00447704306987)"/><path d="M703.8753374297559 363.2336821353706Q703.8753374297559 380.1309153832742 692.3140725759271 391.2879402072489Q680.7797570574219 402.44496503122343 657.0912913079686 402.44496503122343L657.0912913079686 402.44496503122343L631.1121320560084 402.44496503122343L631.1121320560084 458.9038225341867L613.43336808372 458.9038225341867L613.43336808372 323.6720578803109L657.0912913079686 323.6720578803109Q679.9982263330372 323.6720578803109 691.9367818813965 334.72128536299107Q703.8753374297559 345.7705128456712 703.8753374297559 363.2336821353706L703.8753374297559 363.2336821353706ZM657.0912913079686 387.8923239564739Q671.8595270653069 387.8923239564739 678.8394049141219 381.4783821494548Q685.819282762937 375.09138967775914 685.819282762937 363.2336821353706L685.819282762937 363.2336821353706Q685.819282762937 338.2246989550604 657.0912913079686 338.2246989550604L657.0912913079686 338.2246989550604L631.1121320560084 338.2246989550604L631.1121320560084 387.8923239564739L657.0912913079686 387.8923239564739ZM772.164953139784 460.6555293302214Q757.2350213705039 460.6555293302214 745.1078204748794 453.8642968286716Q732.9806195792547 447.07306432712187 726.0815897364106 434.54162340164316Q719.1825598935663 422.03713181148805 719.1825598935663 405.54413859343856L719.1825598935663 405.54413859343856Q719.1825598935663 389.23979072265445 726.2702350836759 376.73529913249934Q733.3579102737854 364.20385820702063 745.5929085107043 357.52042304676525Q757.8009574122998 350.83698788651 772.9464838641687 350.83698788651L772.9464838641687 350.83698788651Q788.065060980714 350.83698788651 800.300059217633 357.52042304676525Q812.535057454552 364.20385820702063 819.5957833093379 376.62750179120485Q826.6834584994474 389.0511453753892 826.6834584994474 405.54413859343856L826.6834584994474 405.54413859343856Q826.6834584994474 422.03713181148805 819.4071379620726 434.54162340164316Q812.1308174246979 447.07306432712187 799.7071738405135 453.8642968286716Q787.3104795916529 460.6555293302214 772.164953139784 460.6555293302214L772.164953139784 460.6555293302214ZM772.164953139784 445.1327121838219Q781.6780685090183 445.1327121838219 790.0054131240139 440.65912252010264Q798.3597070743331 436.21248219170695 803.5070301211426 427.2653028642684Q808.6543531679522 418.3450728721534 808.6543531679522 405.54413859343856L808.6543531679522 405.54413859343856Q808.6543531679522 392.7432043147238 803.5878781271134 383.82297432260884Q798.5483524215983 374.8757949951703 790.409653153868 370.5100026727454Q782.2440045508142 366.1442103503206 772.7578385169035 366.1442103503206L772.7578385169035 366.1442103503206Q763.0560778004037 366.1442103503206 754.9982265386443 370.5100026727454Q746.9403752768849 374.8757949951703 742.0894949186351 383.82297432260884Q737.2386145603851 392.7432043147238 737.2386145603851 405.54413859343856L737.2386145603851 405.54413859343856Q737.2386145603851 418.5337182194187 741.9816975773406 427.48089754685725Q746.7517299296196 436.4011275389722 754.7017838500846 440.7669198613971Q762.6518377705496 445.1327121838219 772.164953139784 445.1327121838219L772.164953139784 445.1327121838219ZM867.6194988560112 369.8362692896551Q872.2817338669958 360.72739395027486 880.9324705058747 355.6878682447598Q889.5562578094299 350.6213932039211 901.9799013936141 350.6213932039211L901.9799013936141 350.6213932039211L901.9799013936141 368.8660932180052L897.3176663826297 368.8660932180052Q867.6194988560112 368.8660932180052 867.6194988560112 401.0705489297193L867.6194988560112 401.0705489297193L867.6194988560112 458.9038225341867L849.9676842190465 458.9038225341867L849.9676842190465 352.56174534722095L867.6194988560112 352.56174534722095L867.6194988560112 369.8362692896551ZM971.6439332051465 367.1143864219705L943.886117821828 367.1143864219705L943.886117821828 429.7985403846877Q943.886117821828 437.5599489578875 947.1739367313085 440.7669198613971Q950.4887049761126 443.97389076490674 958.6274042438428 443.97389076490674L958.6274042438428 443.97389076490674L971.6439332051465 443.97389076490674L971.6439332051465 458.9038225341867L955.7168760288929 458.9038225341867Q940.9755896068781 458.9038225341867 933.591471728209 452.11259003263694Q926.2343031848634 445.3213575310872 926.2343031848634 429.7985403846877L926.2343031848634 429.7985403846877L926.2343031848634 367.1143864219705L912.4631928344985 367.1143864219705L912.4631928344985 352.56174534722095L926.2343031848634 352.56174534722095L926.2343031848634 325.8010553708761L943.886117821828 325.8010553708761L943.886117821828 352.56174534722095L971.6439332051465 352.56174534722095L971.6439332051465 367.1143864219705ZM1036.24148997584 352.56174534722095L1036.24148997584 367.1143864219705L1013.9274403278908 367.1143864219705L1013.9274403278908 458.9038225341867L996.2756256909262 458.9038225341867L996.2756256909262 367.1143864219705L982.5045153405614 367.1143864219705L982.5045153405614 352.56174534722095L996.2756256909262 352.56174534722095L996.2756256909262 345.01593145661013Q996.2756256909262 327.1485221370566 1005.4922983716009 318.9020255280319Q1014.7089710522756 310.6555289190072 1035.082668556925 310.6555289190072L1035.082668556925 310.6555289190072L1035.082668556925 325.3968153410219Q1023.4405556971252 325.3968153410219 1018.6974726801699 329.9782023460357Q1013.9274403278908 334.5326400157258 1013.9274403278908 345.01593145661013L1013.9274403278908 345.01593145661013L1013.9274403278908 352.56174534722095L1036.24148997584 352.56174534722095ZM1103.1836389196878 460.6555293302214Q1088.2537071504075 460.6555293302214 1076.1265062547832 453.8642968286716Q1063.9993053591584 447.07306432712187 1057.1002755163145 434.54162340164316Q1050.2281950087936 422.03713181148805 1050.2281950087936 405.54413859343856L1050.2281950087936 405.54413859343856Q1050.2281950087936 389.23979072265445 1057.2889208635797 376.73529913249934Q1064.3765960536894 364.20385820702063 1076.611594290608 357.52042304676525Q1088.8196431922038 350.83698788651 1103.9651696440724 350.83698788651L1103.9651696440724 350.83698788651Q1119.1106960959414 350.83698788651 1131.3187449975367 357.52042304676525Q1143.5537432344559 364.20385820702063 1150.6414184245655 376.62750179120485Q1157.7021442793512 389.0511453753892 1157.7021442793512 405.54413859343856L1157.7021442793512 405.54413859343856Q1157.7021442793512 422.03713181148805 1150.4258237419767 434.54162340164316Q1143.1495032046018 447.07306432712187 1130.7528089557409 453.8642968286716Q1118.3291653715564 460.6555293302214 1103.1836389196878 460.6555293302214L1103.1836389196878 460.6555293302214ZM1103.1836389196878 445.1327121838219Q1112.6967542889224 445.1327121838219 1121.0510482392415 440.65912252010264Q1129.378392854237 436.21248219170695 1134.5257159010466 427.2653028642684Q1139.6730389478562 418.3450728721534 1139.6730389478562 405.54413859343856L1139.6730389478562 405.54413859343856Q1139.6730389478562 392.7432043147238 1134.633513242341 383.82297432260884Q1129.5670382015023 374.8757949951703 1121.428338933772 370.5100026727454Q1113.2896396660417 366.1442103503206 1103.776524296807 366.1442103503206L1103.776524296807 366.1442103503206Q1094.0747635803077 366.1442103503206 1086.0169123185483 370.5100026727454Q1077.9590610567889 374.8757949951703 1073.108180698539 383.82297432260884Q1068.257300340289 392.7432043147238 1068.257300340289 405.54413859343856L1068.257300340289 405.54413859343856Q1068.257300340289 418.5337182194187 1073.027332692568 427.48089754685725Q1077.7704157095231 436.4011275389722 1085.7204696299882 440.7669198613971Q1093.6705235504533 445.1327121838219 1103.1836389196878 445.1327121838219L1103.1836389196878 445.1327121838219ZM1180.9863699989505 315.31776392999177L1198.6651339712384 315.31776392999177L1198.6651339712384 458.9038225341867L1180.9863699989505 458.9038225341867L1180.9863699989505 315.31776392999177ZM1237.849467531768 335.3141707401105Q1232.8099418262527 335.3141707401105 1229.3065282341836 331.81075714804115Q1225.830063977438 328.30734355597184 1225.830063977438 323.2678178504567L1225.830063977438 323.2678178504567Q1225.830063977438 318.22829214494163 1229.3065282341836 314.7248785528723Q1232.8099418262527 311.2484142961266 1237.849467531768 311.2484142961266L1237.849467531768 311.2484142961266Q1242.7003478900178 311.2484142961266 1246.0959641407926 314.7248785528723Q1249.4915803915678 318.22829214494163 1249.4915803915678 323.2678178504567L1249.4915803915678 323.2678178504567Q1249.4915803915678 328.30734355597184 1246.0959641407926 331.81075714804115Q1242.7003478900178 335.3141707401105 1237.849467531768 335.3141707401105L1237.849467531768 335.3141707401105ZM1228.7405921923878 352.56174534722095L1246.3924068293522 352.56174534722095L1246.3924068293522 458.9038225341867L1228.7405921923878 458.9038225341867L1228.7405921923878 352.56174534722095ZM1322.8476711424346 460.6555293302214Q1307.8907900378308 460.6555293302214 1295.7635891422065 453.8642968286716Q1283.6363882465816 447.07306432712187 1276.7643077390612 434.54162340164316Q1269.8652778962169 422.03713181148805 1269.8652778962169 405.54413859343856L1269.8652778962169 405.54413859343856Q1269.8652778962169 389.23979072265445 1276.9529530863265 376.73529913249934Q1284.0406282764357 364.20385820702063 1296.2486771780314 357.52042304676525Q1308.48367541495 350.83698788651 1323.6022525314957 350.83698788651L1323.6022525314957 350.83698788651Q1338.7477789833647 350.83698788651 1350.9827772202834 357.52042304676525Q1363.1908261218791 364.20385820702063 1370.2785013119883 376.62750179120485Q1377.366176502098 389.0511453753892 1377.366176502098 405.54413859343856L1377.366176502098 405.54413859343856Q1377.366176502098 422.03713181148805 1370.089855964723 434.54162340164316Q1362.8135354273486 447.07306432712187 1350.3898918431642 453.8642968286716Q1337.9662482589797 460.6555293302214 1322.8476711424346 460.6555293302214L1322.8476711424346 460.6555293302214ZM1322.8476711424346 445.1327121838219Q1332.3338371763452 445.1327121838219 1340.6881311266643 440.65912252010264Q1349.0424250769838 436.21248219170695 1354.1627987884694 427.2653028642684Q1359.310121835279 418.3450728721534 1359.310121835279 405.54413859343856L1359.310121835279 405.54413859343856Q1359.310121835279 392.7432043147238 1354.2705961297638 383.82297432260884Q1349.2310704242486 374.8757949951703 1341.0654218211948 370.5100026727454Q1332.9267225534645 366.1442103503206 1323.4136071842304 366.1442103503206L1323.4136071842304 366.1442103503206Q1313.7118464677305 366.1442103503206 1305.6539952059711 370.5100026727454Q1297.6230932795356 374.8757949951703 1292.7722129212857 383.82297432260884Q1287.9213325630358 392.7432043147238 1287.9213325630358 405.54413859343856L1287.9213325630358 405.54413859343856Q1287.9213325630358 418.5337182194187 1292.6644155799909 427.48089754685725Q1297.4074985969464 436.4011275389722 1305.384501852735 440.7669198613971Q1313.3345557732 445.1327121838219 1322.8476711424346 445.1327121838219L1322.8476711424346 445.1327121838219Z " fill="#aaaaaa" transform="matrix(0.6352703999215933,0,0,0.6352703999215932,0,55.00447704306987)"/></g></svg>